<svg width="148" height="60" viewBox="0 0 2438 1000" xmlns="http://www.w3.org/2000/svg" xmlns:xlink="http://www.w3.org/1999/xlink">
	<g fill="#aaa">
		<g id="sphere">
			<path d="M499 0c191,0 356,107 440,264 -233,0 -467,0 -700,0 -129,0 -194,96 -194,178 0,116 55,159 116,179l-144 0 -2 0 0 0c-10,-39 -15,-79 -15,-121 0,-276 223,-500 499,-500zm491 411c6,29 8,58 8,89 0,276 -223,500 -499,500 -176,0 -332,-92 -420,-230 223,0 447,0 671,0 129,0 193,-97 193,-179 0,-130 -77,-174 -132,-180l179 0z" />
			<path d="M592 434c0,-14 10,-22 24,-22 14,0 24,8 24,22l0 61 100 0 0 -61c0,-14 10,-22 24,-22 13,0 24,8 24,22l0 165c0,14 -11,22 -24,22 -14,0 -24,-8 -24,-22l0 -64 -100 0 0 64c0,14 -10,22 -24,22 -14,0 -24,-8 -24,-22l0 -165zm-383 -2c0,-12 10,-21 24,-21 14,0 24,8 24,21l0 63 78 -76c4,-4 10,-8 18,-8 13,0 24,8 24,20 0,8 -5,14 -16,24l-60 53 74 70c7,7 13,13 13,22 0,14 -12,20 -25,20 -9,0 -15,-5 -24,-13l-82 -82 0 74c0,12 -10,21 -24,21 -14,0 -24,-8 -24,-21l0 -167zm342 6c0,11 -8,21 -21,21 -13,0 -24,-8 -43,-8 -13,0 -26,6 -26,18 0,30 106,11 106,86 0,41 -37,67 -81,67 -24,0 -77,-5 -77,-33 0,-11 8,-20 21,-20 15,0 33,11 54,11 21,0 32,-10 32,-25 0,-34 -106,-13 -106,-80 0,-41 36,-66 79,-66 17,0 62,6 62,29z" />
		</g>
		<g id="text">
			<path d="M1145 210c0,-10 7,-17 18,-17 10,0 18,6 18,17l0 51 58 -62c3,-3 7,-6 14,-6 9,0 17,6 17,17 0,6 -4,11 -11,19l-45 44 55 57c5,6 9,11 9,18 0,11 -8,16 -18,16 -7,0 -11,-4 -18,-11l-61 -66 0 60c0,9 -7,17 -18,17 -10,0 -18,-6 -18,-17l0 -137zm1039 1c0,-12 8,-18 18,-18 10,0 18,6 18,18l0 135c0,12 -8,18 -18,18 -10,0 -18,-6 -18,-18l0 -135zm-85 16l-26 0c-11,0 -16,-9 -16,-17 0,-8 6,-16 16,-16l88 0c10,0 16,8 16,16 0,8 -5,17 -16,17l-26 0 0 119c0,12 -8,18 -18,18 -10,0 -18,-6 -18,-18l0 -119zm-192 -16c0,-12 8,-18 18,-18 5,0 12,3 15,7l75 101 0 0 0 -90c0,-12 8,-18 18,-18 10,0 18,6 18,18l0 135c0,12 -8,18 -18,18 -4,0 -11,-3 -15,-8l-75 -99 0 0 0 89c0,12 -8,18 -18,18 -10,0 -18,-6 -18,-18l0 -135zm-176 67c0,-49 33,-87 82,-87 47,0 81,39 81,87 0,50 -33,88 -81,88 -48,0 -82,-38 -82,-88zm126 0c0,-28 -15,-54 -44,-54 -30,0 -45,26 -45,54 0,29 15,55 45,55 30,0 44,-26 44,-55zm-256 -65c0,-12 7,-19 18,-19l42 0c35,0 61,23 61,57 0,34 -27,56 -59,56l-26 0 0 39c0,12 -8,18 -18,18 -10,0 -18,-6 -18,-18l0 -133zm36 63l24 0c15,0 24,-11 24,-26 0,-14 -9,-25 -24,-25l-24 0 0 51zm-69 56c10,0 17,5 17,15 0,9 -8,16 -17,16l-93 0c-12,0 -20,-7 -20,-17 0,-5 2,-10 5,-14l76 -107 -62 0c-10,0 -17,-5 -17,-15 0,-9 8,-16 17,-16l87 0c13,0 19,9 19,17 0,5 -2,11 -5,15l-75 106 68 0zm-285 -54c0,-49 33,-87 82,-87 47,0 81,39 81,87 0,50 -33,88 -81,88 -48,0 -82,-38 -82,-88zm126 0c0,-28 -15,-54 -44,-54 -30,0 -45,26 -45,54 0,29 15,55 45,55 30,0 44,-26 44,-55zm-70 -131c9,0 17,8 17,17 0,10 -8,17 -17,17 -10,0 -17,-7 -17,-17 0,-9 7,-17 17,-17zm52 0c9,0 17,8 17,17 0,10 -8,17 -17,17 -10,0 -17,-7 -17,-17 0,-9 7,-17 17,-17z" />
			<path d="M1245 449c0,9 -6,18 -16,18 -10,0 -17,-7 -32,-7 -10,0 -19,5 -19,15 0,24 79,9 79,70 0,34 -28,55 -60,55 -19,0 -58,-4 -58,-27 0,-9 6,-16 16,-16 11,0 24,9 40,9 15,0 24,-9 24,-21 0,-28 -79,-11 -79,-66 0,-33 27,-54 58,-54 14,0 47,5 47,24zm1158 -4c0,-12 7,-18 17,-18 11,0 18,6 18,18l0 135c0,12 -7,19 -18,19 -10,0 -17,-7 -17,-19l0 -135zm-110 0c4,-11 13,-20 25,-20 12,0 21,9 25,20l47 129c1,4 2,7 2,9 0,9 -8,16 -17,16 -10,0 -15,-6 -17,-13l-7 -22 -66 0 -7 22c-3,7 -8,13 -17,13 -10,0 -18,-8 -18,-17 0,-4 1,-7 2,-8l48 -129zm2 86l45 0 -22 -69 0 0 -23 69zm-195 -87c0,-9 7,-17 18,-17 10,0 17,6 17,17l0 52 59 -63c2,-2 7,-6 13,-6 9,0 18,7 18,17 0,6 -4,11 -12,19l-45 44 55 57c6,6 10,11 10,18 0,11 -9,17 -18,17 -7,0 -12,-4 -18,-12l-62 -66 0 60c0,10 -7,18 -17,18 -11,0 -18,-7 -18,-18l0 -137zm-57 1c0,-12 8,-18 18,-18 10,0 18,6 18,18l0 135c0,12 -8,19 -18,19 -10,0 -18,-7 -18,-19l0 -135zm-85 16l-26 0c-11,0 -16,-8 -16,-16 0,-9 6,-17 16,-17l87 0c10,0 16,8 16,17 0,8 -5,16 -16,16l-26 0 0 119c0,12 -7,19 -17,19 -11,0 -18,-7 -18,-19l0 -119zm-61 105c9,0 17,5 17,15 0,9 -9,16 -17,16l-94 0c-12,0 -19,-7 -19,-17 0,-5 1,-9 4,-14l77 -106 -63 0c-9,0 -16,-6 -16,-16 0,-9 7,-16 16,-16l87 0c14,0 20,9 20,17 0,6 -2,11 -5,16l-76 105 69 0zm-135 -117c0,9 -7,18 -16,18 -10,0 -18,-7 -32,-7 -10,0 -19,5 -19,15 0,24 79,9 79,70 0,34 -28,55 -61,55 -18,0 -57,-4 -57,-27 0,-9 6,-16 16,-16 11,0 24,9 39,9 16,0 25,-9 25,-21 0,-28 -79,-11 -79,-66 0,-33 27,-54 58,-54 13,0 47,5 47,24zm-157 -4c0,-12 8,-18 18,-18 10,0 18,6 18,18l0 135c0,12 -8,19 -18,19 -10,0 -18,-7 -18,-19l0 -135zm-85 16l-26 0c-11,0 -16,-8 -16,-16 0,-9 6,-17 16,-17l87 0c10,0 16,8 16,17 0,8 -4,16 -16,16l-26 0 0 119c0,12 -7,19 -17,19 -10,0 -18,-7 -18,-19l0 -119zm-117 -16c4,-11 13,-20 26,-20 12,0 21,9 25,20l46 129c2,4 2,7 2,9 0,9 -7,16 -16,16 -10,0 -15,-6 -17,-13l-8 -22 -65 0 -7 22c-3,7 -8,13 -18,13 -9,0 -17,-8 -17,-17 0,-4 1,-7 2,-8l47 -129zm3 86l45 0 -22 -69 -1 0 -22 69zm-105 -70l-26 0c-11,0 -16,-8 -16,-16 0,-9 6,-17 16,-17l87 0c10,0 16,8 16,17 0,8 -5,16 -16,16l-26 0 0 119c0,12 -7,19 -18,19 -10,0 -17,-7 -17,-19l0 -119z" />
			<path d="M1145 680c0,-12 8,-19 18,-19 10,0 18,7 18,19l0 50 74 0 0 -50c0,-12 8,-19 18,-19 10,0 18,7 18,19l0 134c0,12 -8,19 -18,19 -10,0 -18,-7 -18,-19l0 -51 -74 0 0 51c0,12 -8,19 -18,19 -10,0 -18,-7 -18,-19l0 -134zm715 0c0,-12 7,-19 17,-19 11,0 18,7 18,19l0 119 42 0c12,0 18,9 17,17 0,8 -6,15 -17,15l-59 0c-12,0 -18,-7 -18,-19l0 -132zm-110 -1c4,-11 13,-19 25,-19 12,0 21,8 25,19l47 129c1,4 2,7 2,9 0,9 -8,16 -17,16 -10,0 -15,-5 -17,-13l-7 -22 -66 0 -7 22c-3,8 -7,13 -17,13 -10,0 -18,-7 -18,-17 0,-4 1,-6 2,-8l48 -129zm2 86l45 0 -22 -68 0 0 -23 68zm-105 -70l-26 0c-11,0 -16,-8 -16,-16 0,-8 6,-16 16,-16l87 0c11,0 16,8 16,16 0,8 -4,16 -16,16l-25 0 0 119c0,12 -8,19 -18,19 -10,0 -18,-7 -18,-19l0 -119zm-117 -16c4,-11 14,-19 26,-19 12,0 21,8 25,19l46 129c2,4 2,7 2,9 0,9 -7,16 -16,16 -10,0 -15,-5 -17,-13l-7 -22 -66 0 -7 22c-3,8 -8,13 -17,13 -10,0 -18,-7 -18,-17 0,-4 1,-6 2,-8l47 -129zm3 86l45 0 -22 -68 -1 0 -22 68zm-174 -78c-2,-3 -2,-6 -2,-9 0,-10 9,-17 18,-17 8,0 13,5 16,12l37 98 37 -98c3,-7 8,-12 16,-12 9,0 18,7 18,17 0,3 0,6 -2,9l-51 132c-4,8 -8,14 -18,14 -10,0 -14,-6 -17,-14l-52 -132zm-47 -7c0,-12 7,-19 18,-19 10,0 17,7 17,19l0 134c0,12 -7,19 -17,19 -11,0 -18,-7 -18,-19l0 -134z" />
		</g>
	</g>
</svg>
